<svg version="1.2" xmlns="http://www.w3.org/2000/svg" viewBox="0 0 1640 664" width="1640" height="664"><style></style><path  d="m216.2 326.6c3.8 0 8-1.4 12.2-4.6 0.2-0.2 0.4-0.4 0.8-0.6l10.8-9.2c0 3.8 0.4 7.6 1 9.2 1.6 2.6 15.4 2.4 15.2-2.4 1.2-4 4.8-7.8 6.6-11.2 1-1.2 1.2-12.6 1.2-17.2 1.8-15.4 3.6-30.6 6.6-45.8-5.4-1.8-10.2-1.2-15.2-1 2.6-3.6 5.6-7.4 6.8-11.4 0.8-7.6 1.2-16.2-0.4-23.8-1.4-15.6-6.4-28-23.6-31.2h0.2c-12 1.6-23.8 18-35.2 24.4-5.2 5-8.6 14.2-10.4 21.6-3.2 13.4-7.8 31.4-7.8 48.8 0 19.8 6 54.4 31.2 54.4zm-0.2-2.8c-24.2 0-27.8-29.2-27.8-48.6 0-26.8 6.2-61.8 16.4-72 7.4-5.4 18.6-11.2 27.2-11.2 22.2 0 20.2 35.2 19.4 54.8v0.2c-2.6 2.2-7.8 2.2-13.6 2 0.2-3.8 0.4-8 0.4-12l-1.6-19c-0.4-4.8-4-11.8-12.2-11.2-20.6 1-21 30.8-21 47 0 19.4-1.4 51 19.6 44.6 13.2-7 10.6-17 13.2-22.4-4.2-3.6-14.2-0.8-19-3 0.2-7.4-0.8-10.4 2.6-12 9 0 20.6-3.2 30.4-3.2 2.4 0 4.8 0 7.2 1 1.6 18-1.6 33.4-1.6 54.2-1.2 6.8-4 7.4-10.6 7.4-0.8 0.2-1.4 0.4-2.2 0-2.4-7.2 0.6-16-0.4-23.2h-2c-4.4 11.8-9.6 26.6-24.4 26.6zm0.6-63.8c-7.2-10.2 0.4-36 3-43.2 5.2-9.8 11.8-0.6 13.2 4.4 0.6 1.8 2.6 18.6 2.6 25.8-8.6 1.8-11.2 9.8-18.8 13zm5.4 16.6c3.4 0.6 5 0 8.6 0h3c-0.8 1.6-2.2 4.2-2 5.2-3.6-1-7.6-3.2-9.6-5.2zm58.6 37c1.4 6.4 11.2 12.2 16.4 12.2 4.4 0 10.2-3 13.8-7.4 4.6-5.8 7-18 10.2-25.4-2-5.6-9.2-1.4-9.6-2.6-12.6-27 8.6-70.2 5.4-97.4v0.2c0.8-2.6 1.4-5.8 1.2-8.6-1-2.6-21.4-4.6-22.8-3.6v-0.2c-4.8 3.2-9.6 4.4-13.4 9.4l-1.2 2.4c8.2 35.8-1.4 71.8-1.4 107.4 0 5.2 0.4 9.6 1.4 13.6zm21.4 9.4c-14 4-20.2-12.2-20.2-22.2 0-36 8.8-71.8 1-107.8 6-0.4 12.6-1.8 18.6 0.8 0.4 2.2 0.6 4.8 0.6 7.6 1 31.2-8.6 62.8-8.6 93.8 0 5.8 1.4 10.8 5.6 12 3.4 0.6 6-1 8.4-3.2 1.8 1.4 3.4 3.2 4 4.6-0.2 1-0.2 3.8-0.2 4.8 0.4-0.6-1.4 2.2-2.4 3.8-1.8 2.8-3.8 4.8-6.8 5.8zm52.6 0c16.2 0 26.4-8 35.2-23.2 8.8-14.8 1.2-38-15.8-47-9.4-5-22.2-8.2-32.2-1-5 3.6-8.6 10.2-11.6 15.6-8 21.6-2.8 55.6 24.4 55.6zm0.2-2.2c-18.8 0-24.8-13-24.8-30.6 0-6.8 0-15.4 2.4-21.8 2-5.6 14.8-12.8 22.4-13.2 13-0.6 32.4 14.6 32.4 33 0 18.4-14.4 32.6-32.4 32.6zm0.6-19.4c10.2 1.6 15.6-5 16.4-12.6 0.8-4.6-0.6-10.6-2.8-15.4v-0.2c-5.4-11.4-12.2-10.8-21.2-6.6l0.2-0.2c-3.6 2-5.4 9.4-5.4 16.6 0 11.6 2.6 16.8 12.8 18.4zm1-21.4c-3.8-3.8-4.8-13.2-4.8-13.2 8.8-2.6 14.2 4.4 16.6 12.8 2.4 8.4-8 4.2-11.8 0.4zm47.6 44c5.2 0.6 7-3.4 8.6-7.2 0.4-0.8 0.8-1.6 1-2.4 6 6.6 15.2 11.4 23.6 11.4 7.6 0 16.4-3.2 21.8-10.2 5.6-7.2 12-14.4 17.4-21.8 5.4-6.2 2.6-17.8-0.8-24-6.8-8.2-17-9.2-27.8-10.4-1.6-0.2-3-0.2-4.8-0.4 4.4-21.6 17.8-44 15.4-66.8-7.2-3.4-14.8-2-21.8-3.6-2.6 2.6-9.4 7.8-12.4 10.4-9.6 12-10 31.8-12.6 47-2.8 19.8-11.4 38.2-11.4 58 0 3.2-0.6 7.6-1.6 10.6-1 5-1.8 8.4 5.4 9.4zm-3.4-3.6c1.8-20.8 6.4-41 11.4-61.6 1.4-5.8 2.4-12.4 3.2-18.4 2.2-13.2 4.2-26.2 9.8-38.8 0.8-0.2 0.4-0.6 0.4-0.6 3.6 0 10.2 0.2 16.2 1.6v0.8c-0.4 0.4-1.6 2.4-2.2 3.4-0.4 0.6-1.4 2.4-1.8 3.4-9 20.4-9.4 50.6-15.8 70.2 0.4-0.4 0.8-0.4 1.4-0.6 4-1.4 9.2-3.2 14.4-2.2 10 1.6 20 7.6 23.4 16.6 5 13.2-9.6 28.8-24.4 28.8-8.6 0-18.8-6.2-22.2-13-7.4 4.4-3 14-13.8 10.4zm32.8-5.8c5 1.8 10.2-4.8 11.4-13.6 0.6-4.6-2-13-10.6-12.4-8 0.4-12.2 2.8-12.2 7.2 0 7.4 4.2 16.2 11.4 18.8zm51.6-8.4c1.8 16.6 12.8 24.8 24.8 16.8 1.4-0.8 1.8-2.6 2.6-4 0.6-0.8 6.4 5.4 13.2 6 3.4 0.4 7.2 1.4 10.8 0.6 3.6 0 10.8-14.6 9.8-17.4-0.6-0.4-0.8-5.2-0.8-5.2-13.2 0-13.8-6.8-13.8-18 0-7.8 1-15.8 1-24.6 0-12.6-3-34.6-20.2-34.6-7 0-13.2 5.8-18.8 12-4 4.6-12.6 14.2-8.6 17.6 1.4 2.6 4.6 5.6 7.4 6.4h0.2c1.4 0.2 3-1.8 4.4-3.8 2-2.8 4.6-6.2 7.4-5.2 4 1.6 4 6 4.8 9.6-6.6 1.8-13.6 7.2-19 11.6-10.4 9.2-6.6 19.4-5.2 32.2zm16.6 18.2c-10 0-12.2-9-15-20.8-2.8-12.2-2-20.4 9.4-31 4.4-4 10.8-2 15.4-2 1.2-5.4 0.8-17.4-5.8-19.8-4.6-1.6-8 2.6-10.8 6.2-0.6 0.6-1.6 2-2.2 2.6-2-0.8-4.2-5-6.2-6.2 1.6-4.4 4.4-5.8 8.8-8.8 9.2-8.8 18.4-1.8 23.4 8.4 12.2 18.4-10 49.8 14 61.2 1.4 0.8 3 1.6 3.4 2.4 0 1.8-0.2 5.8-0.6 7-3.8 0.6-19.8-1-22.4-8.4-4.8 3.4-3.2 9.2-11.4 9.2zm1.8-12.4c6.4-2.6 9.4-9.8 9.4-17 0-4.8-1-8.8-2.6-12l-2.6-4.6c-10.2 2.4-13 15.8-13 24.2-0.6 4.6 3 11.2 8.8 9.4zm3.6-14.4c-5 0-4.6-14.4-0.6-17h0.2l1.6 3.4c1.2 2.4 2.4 5 2.8 10.2-1.4 2.2-2.8 3.4-4 3.4zm47 16c1.4 6.4 11.2 12.2 16.4 12.2 4.4 0 10.2-3 13.8-7.4 4.6-5.8 7-18 10.2-25.4-2-5.6-9.2-1.4-9.6-2.6-12.6-27 8.6-70.2 5.4-97.4v0.2c0.8-2.6 1.4-5.8 1.2-8.6-1-2.6-21.4-4.6-22.8-3.6v-0.2c-4.8 3.2-9.6 4.4-13.4 9.4l-1.2 2.4c8.2 35.8-1.4 71.8-1.4 107.4 0 5.2 0.4 9.6 1.4 13.6zm21.4 9.4c-14 4-20.2-12.2-20.2-22.2 0-36 8.8-71.8 1-107.8 6-0.4 12.6-1.8 18.6 0.8 0.4 2.2 0.6 4.8 0.6 7.6 1 31.2-8.6 62.8-8.6 93.8 0 5.8 1.4 10.8 5.6 12 3.4 0.6 6-1 8.4-3.2 1.8 1.4 3.4 3.2 4 4.6-0.2 1-0.2 3.8-0.2 4.8 0.4-0.6-1.4 2.2-2.4 3.8-1.8 2.8-3.8 4.8-6.8 5.8zm38-2.6c8.2 5.4 16 7.2 25.6 7.2 9.2 0 12.8-5.2 20.2-10.4 9.8-7.2 21-21.6 25.4-28.8 4.6-8 2.2-20.2 3.4-28.8-2.8-2.6-10-3.8-13-3.8-2 0-27.2 10.2-28.4 12.4-1 1-1.6 2.4-2 4.8-0.4-0.8-0.2-0.2-0.8-0.8-0.6-0.6-1-1-1.4-1.4h0.2c-3.2-5.2-7-17.6-7-27.4 0-4.8 1-9.4 3-12 4.4 2.4 8.8 7.8 10.2 12 2.2 5.6 0 11 0 13.4 2.8 1 6.2 1.6 8.4 1.6l9.6-5.6c2-7 21-25.6 18.6-31.6-7-16-19.8-22.4-34.8-22.4-7.6 0-29.6 3.8-33.8 11.4-5.2 10.2-8 15-10.8 28.4-2.8 13-4.8 31.8-4.8 44 0.4 11 4 32.2 12.2 37.8zm0.4-3.8c-14.4-19-10.6-55.2-5.6-77.2 2.4-12.6 6.2-32.6 22.8-33.4h0.2c18.6 4 33.2 17.4 36.4 35.4-3.4 6.6-2.6 14.8-10.6 14.8-1.4 0-3.4-0.6-5.6-1.2 2.2-10.8-4.4-24-13.6-25.8-3.2-0.8-6.4-0.8-9.2 2-6.6 7.4-9.2 16.8-9.2 26.4 0 12 4.6 25 10.6 34.6 0.8 1.2 3.4 2.6 4.8 3.2 0.8 0.4 1.4 0.6 2 1 5.2 3.2 7-7.4 8.6-16 0.2-1.8 1.2-5.4 1.2-6.6l1.2-3.6c0.4 0 1.2-0.2 1.4-0.2 0.8-0.2 2.2-0.4 2.8-0.6 5 0.6 13.6 2.2 15.8 3 0.6 2.8-1.8 12.6-3 17.6-1.4 8.4-5.2 18-8.6 25.8l0.2-0.4c-5.4 14-34.6 12-42.6 1.2zm82.6 9.8c0 0.4 0.4 0.8 0.8 1.2 0.6 0.2 1.2 0.2 1.8 0.4 3.4 0.8 7.4 1.6 9.6-0.6 1.6-1.6 2.2-4.4 4.2-5.8 9.8-9.8 2.2-1.6 5 4.8 0.6 1.6 12.8 2.8 14.6-4v-0.2c2.4-6.2 15.2-16.2 16-22.8 1-10.4 5.8-44 0.8-54.8-0.2-0.6 0-0.8-1-1.2-6.4-2.8-14 3.4-20.4 0.4-0.2-18.4 2-37.2 1.2-55.6-5.4-1.4-9.2-1.8-11.8-1.8-6.6 0-10 0.2-17 7.6l-1.8 2.6c0 7.2-0.2 15-0.4 22.2-0.8 36 0 71.6-1.6 107.6zm2.2-0.8c4.8-36.8-0.6-73.2 1.6-109.8l0.2-16.6c3.2 0 6.2-2.4 9.2-1.4 4.4 1.4 1.8 45.4 1.8 50.6 0 4.6-1.2 8.2 0.4 13 6.2 2 11.4-0.2 17.6 1 2.4 9.4 3.8 20 3.8 30.2 0 9.8-1.2 18.8-2.2 28-3 4.6-5.8 5.4-11.2 4.8 0.8-10.2 3.4-22.4 3.4-32.8 0-8-1-15.8-3.2-23.4-2.6-0.6-4.8-0.8-7.2-0.6-1.8 4.6-2.2 9.6-2.2 15.4 0 13 3.4 30.6-3.6 41.6zm61-19.4c1.8 16.6 12.8 24.8 24.8 16.8 1.4-0.8 1.8-2.6 2.6-4 0.6-0.8 6.4 5.4 13.2 6 3.4 0.4 7.2 1.4 10.8 0.6 3.6 0 10.8-14.6 9.8-17.4-0.6-0.4-0.8-5.2-0.8-5.2-13.2 0-13.8-6.8-13.8-18 0-7.8 1-15.8 1-24.6 0-12.6-3-34.6-20.2-34.6-7 0-13.2 5.8-18.8 12-4 4.6-12.6 14.2-8.6 17.6 1.4 2.6 4.6 5.6 7.4 6.4h0.2c1.4 0.2 3-1.8 4.4-3.8 2-2.8 4.6-6.2 7.4-5.2 4 1.6 4 6 4.8 9.6-6.6 1.8-13.6 7.2-19 11.6-10.4 9.2-6.6 19.4-5.2 32.2zm16.6 18.2c-10 0-12.2-9-15-20.8-2.8-12.2-2-20.4 9.4-31 4.4-4 10.8-2 15.4-2 1.2-5.4 0.8-17.4-5.8-19.8-4.6-1.6-8 2.6-10.8 6.2-0.6 0.6-1.6 2-2.2 2.6-2-0.8-4.2-5-6.2-6.2 1.6-4.4 4.4-5.8 8.8-8.8 9.2-8.8 18.4-1.8 23.4 8.4 12.2 18.4-10 49.8 14 61.2 1.4 0.8 3 1.6 3.4 2.4 0 1.8-0.2 5.8-0.6 7-3.8 0.6-19.8-1-22.4-8.4-4.8 3.4-3.2 9.2-11.4 9.2zm1.8-12.4c6.4-2.6 9.4-9.8 9.4-17 0-4.8-1-8.8-2.6-12l-2.6-4.6c-10.2 2.4-13 15.8-13 24.2-0.6 4.6 3 11.2 8.8 9.4zm3.6-14.4c-5 0-4.6-14.4-0.6-17h0.2l1.6 3.4c1.2 2.4 2.4 5 2.8 10.2-1.4 2.2-2.8 3.4-4 3.4zm75.6 27.4c13.4 0 26.6-19.2 29.2-29.2 0.8-2.8 2.4-15.8-0.2-17-1.6-0.6-3.4-0.8-5-0.4-1 1.8-1.4 4-1.8 6-0.8 6.2-6.2 11.8-11.6 11.8-5.4 0-13.4-9.2-13.4-16.8 0-9 0.6-17.6 1.6-36 1 0 2.4 0 3.4-0.2 3.6-0.2 7.8-1 10.6-2.4 4.4-7.6 15.2-14.8 11.4-22-6-3.2-17.4-1.6-24.4-2.6 0.4-8 6-20.6 4.2-28.2-4.2-1.6-7.4-2.2-11.6-2l-8.8 8.6c-2.4 5-3 4-5.4 7.4-0.8 3-1.2 8.2-1.6 11.4v-0.2c-1.4 6.4-9 2-11.2 6.6-4.4 8.4-8.4 14.4-6.4 24.4 6 1.8 11.6-1.8 17.4-0.8-1 13.8-4 26.2-4 40.8 0 21.2 4.4 40.8 27.6 40.8zm0-2c-23.6 0-25.2-20.6-25.2-41 0-14.4 3.6-26.8 3.6-40.4-5-1.6-12 1.4-17 1 0-12.6 1-12.2 3.6-12.2 2.2 0 5.6 0 10.2-5.2 3-3.2 3.6-8.8 4.2-14 0.2-2.4 0.6-4.6 1.2-6.6l1.4-1.4c1.8-0.4 4.8-0.6 6.8-0.2v19.6c0 0.6 0 1.4-0.2 2.2-0.2 1.4-0.6 3-0.2 4.6 1.6 4.2 18.8 2.2 24.4 3.6 1 2.4-1 3.8-1.8 5.6-5.4 3.2-20.8-0.2-22.8 4.8-5.6 14.4-8.4 66.6 14.8 66.6 5 0 11-4.4 13.6-8.8 3.6-5.4 7.4 1.2 5.4 4.2-4.4 6.8-12 17.6-22 17.6zm87.8 1.8c7 0 17.4 1.2 24.2-0.4 1.8-1.2 4.8-6.2 9.4-9.4-3.4-16.8-4-26.2-2.2-45.6 0-0.6 0.2-1 0.2-1.6h0.6c3.2-0.6 6.2-1 9.2-1 2 9.8 2 23.8 3 34.2 0 6.4 0.4 21.6 2.2 24 3 4 14-1.8 18.6-3.4 1.8-3.2 10-6.2 10.8-11.6 1.6-16.6-1.2-102-1.2-99-0.2-9 0-9.2-4-9.2-3.2 0-13.2-2.8-16.4-0.6-6.8 4.4-10.8 12.2-17.4 17 0 0 0.2 0.6 0.4 0.8-2.2 8.2 0.8 17.6 1.2 25.8-2.8-0.2-8.2 1-10.2 1.8h-0.2c-1.2-15.2 5.8-30.8 0.4-45.6-0.4 0-0.6-0.2-0.8-0.4-11.6 0.8-14.6 4.4-22.2 11.2l0.4 1.2c-1.4 29.8-1.8 59.2-5.4 88.6-0.8 7.4-1.6 14.4-1.6 22.2zm1.2-2.2c0-7 0.8-14.2 1.4-21.4 4.2-29 4-58.2 5.6-87.6 2.8 0 6.8-1 9.4-2.6 2.2 16.2 2.2 32.2 3.2 49.8 7-1.2 14.2-2 21-4.4 1.2-9.8-6.6-25.8-2.2-36.4 1.2-2.2 18.4-1.4 20.6-0.8 3.2 9 2 19.8 2.8 29.2 0.8 10.6 7.4 64.2 0.8 70.8-3.2 1-14.4 2-15.6 4.4-1.2-19.2-3.4-39-4.6-58.6-4-1-8.6 0.4-12.6 0.8l-10.6 1.6c-2.6 16.2 0 43.2 3.2 54.4-6.4 2.2-15.8 0-22.4 0.8zm94.4-12.6c1.4 8.6 10.6 17.6 19.8 17.6 5.8 0 11.8-4.6 17.4-6.4 1.4 9.6 13.4 5.4 18.2-1.6v0.2c5.4-3.2 16.2-19.4 14-22.2-2.6-3-3.6 1.2-5.4-2.6-4.2-15.6-0.2-25.8-0.2-41.6 0-7.2-2.4-6.8-10.4-6.6-11.6 0.2-12.8 3-16.4 10.2-0.4 1.2-0.6 2.4-0.8 3.6-3.4-9.8-10.8-13.6-22.6-16.6-2.6-1-6.6-3-9-1.8-2.4 1-7.4 6.6-10.6 9-6.8 5.6-8 10 1 13.4 3.4 1.4 7.4 3 8.4 6 2.2 13-5.4 26.2-3.4 39.4zm2-6.2c0-9.6 7.4-26.8 2.8-35.8-1.6-2.6-5.2-4.2-9-5.6-2-0.8-4-1.6-5.6-2.6 0-0.2 0.6-1.2 0.8-1.6 2.2-1 5.4-2.2 8.2-2.2 9.2 0 19.6 6 22.4 13.6 2.2 10.6-3.8 21.6-0.8 32.2 0.8 3 7.2 5 9.6 2.8 6.8-9.2 7.4-20.6 7.4-31.8l0.6-14c1.2-0.2 11.4-0.4 12 0.6v-0.2c1.6 4.8 0 13.2-1.8 22.4-1.6 8.4-3.4 17.4-2.6 24 1.2 7.8 4.6 7.4 6.8 7 1-0.2 2-0.4 2.2 0.6 0 1.4-0.6 3.8-1.4 5.2-4 5.8-15 9-13.8-0.4 0.2-2.2 0.2-5.4 0-7-4-0.4-8.4 9-12.4 11.8-2.6 2-6 4-9.4 2.6-12.6-3.6-16-11.8-16-21.6zm78.6 20.2c5.2 0.6 7-3.4 8.6-7.2 0.4-0.8 0.8-1.6 1-2.4 6 6.6 15.2 11.4 23.6 11.4 7.6 0 16.4-3.2 21.8-10.2 5.6-7.2 12-14.4 17.4-21.8 5.4-6.2 2.6-17.8-0.8-24-6.8-8.2-17-9.2-27.8-10.4-1.6-0.2-3-0.2-4.8-0.4 4.4-21.6 17.8-44 15.4-66.8-7.2-3.4-14.8-2-21.8-3.6-2.6 2.6-9.4 7.8-12.4 10.4-9.6 12-10 31.8-12.6 47-2.8 19.8-11.4 38.2-11.4 58 0 3.2-0.6 7.6-1.6 10.6-1 5-1.8 8.4 5.4 9.4zm-3.4-3.6c1.8-20.8 6.4-41 11.4-61.6 1.4-5.8 2.4-12.4 3.2-18.4 2.2-13.2 4.2-26.2 9.8-38.8 0.8-0.2 0.4-0.6 0.4-0.6 3.6 0 10.2 0.2 16.2 1.6v0.8c-0.4 0.4-1.6 2.4-2.2 3.4-0.4 0.6-1.4 2.4-1.8 3.4-9 20.4-9.4 50.6-15.8 70.2 0.4-0.4 0.8-0.4 1.4-0.6 4-1.4 9.2-3.2 14.4-2.2 10 1.6 20 7.6 23.4 16.6 5 13.2-9.6 28.8-24.4 28.8-8.6 0-18.8-6.2-22.2-13-7.4 4.4-3 14-13.8 10.4zm32.8-5.8c5 1.8 10.2-4.8 11.4-13.6 0.6-4.6-2-13-10.6-12.4-8 0.4-12.2 2.8-12.2 7.2 0 7.4 4.2 16.2 11.4 18.8z"/></svg>